<svg width="71" height="70" viewBox="0 0 71 70" fill="none" xmlns="http://www.w3.org/2000/svg">
<path fill-rule="evenodd" clip-rule="evenodd" d="M28.31 40.708C37.8154 40.708 50.4533 41.7784 50.4533 51.0388C50.4533 60.7936 35.7274 61.3789 29.4107 61.4141L27.1173 61.4141C20.3823 61.3791 6.16663 60.7971 6.16663 51.0971C6.16663 41.3313 20.8926 40.7454 27.2092 40.7102L27.9681 40.708C28.0864 40.708 28.2004 40.708 28.31 40.708ZM28.31 45.083C20.2045 45.083 10.5416 46.1242 10.5416 51.0971C10.5416 55.0405 16.5208 57.0413 28.31 57.0413C40.0991 57.0413 46.0783 55.02 46.0783 51.0388C46.0783 47.0867 40.0991 45.083 28.31 45.083ZM54.8945 39.3456C62.787 40.5268 64.4407 44.1814 64.4407 47.0368C64.4407 49.1631 63.522 52.0418 59.1383 53.7014C58.8845 53.7977 58.622 53.8443 58.3624 53.8443C57.4787 53.8443 56.6474 53.3048 56.3178 52.4327C55.8891 51.3039 56.4578 50.0381 57.5866 49.6123C60.0657 48.6731 60.0658 47.5268 60.0658 47.0368C60.0658 45.3831 58.1087 44.2514 54.2499 43.6768C53.0541 43.496 52.2287 42.3818 52.4066 41.1889C52.5874 39.9931 53.722 39.191 54.8945 39.3456ZM28.31 5.83337C36.567 5.83337 43.2872 12.5534 43.2872 20.8105C43.3045 24.7888 41.7616 28.5455 38.95 31.3746C36.1441 34.2067 32.3962 35.773 28.4091 35.7875H28.31C20.05 35.7875 13.33 29.0675 13.33 20.8105C13.33 12.5534 20.05 5.83337 28.31 5.83337ZM48.9821 9.11112C54.7134 10.0503 58.8725 14.9532 58.8725 20.7661C58.8609 26.614 54.4946 31.6365 48.7138 32.4474C48.6117 32.462 48.5096 32.4678 48.4075 32.4678C47.3342 32.4678 46.398 31.6774 46.2434 30.5836C46.0771 29.3878 46.9084 28.2795 48.1042 28.1132C51.7442 27.6028 54.4917 24.444 54.4975 20.7632C54.4975 17.1057 51.8784 14.0199 48.2763 13.4307C47.0834 13.2324 46.2755 12.1095 46.4709 10.9165C46.6663 9.72362 47.795 8.92154 48.9821 9.11112ZM28.31 10.2084C22.462 10.2084 17.705 14.9655 17.705 20.8105C17.705 26.6555 22.462 31.4125 28.31 31.4125H28.4004C31.212 31.4009 33.8604 30.2955 35.8466 28.2917C37.8358 26.2938 38.9237 23.6367 38.9121 20.8192C38.9121 14.9655 34.155 10.2084 28.31 10.2084Z" fill="#FD6F00"/>
</svg>
